<?xml version="1.0" encoding="UTF-8" standalone="no"?>
<!-- Created with Inkscape (http://www.inkscape.org/) -->

<svg
   width="177.54903mm"
   height="99.683319mm"
   viewBox="0 0 177.54903 99.683319"
   version="1.1"
   id="svg5"
   sodipodi:docname="drawing.svg"
   inkscape:export-filename="D:\Projects\Projections\resource\img\bitmap1.png"
   inkscape:export-xdpi="500"
   inkscape:export-ydpi="500"
   inkscape:version="1.1 (c68e22c387, 2021-05-23)"
   xmlns:inkscape="http://www.inkscape.org/namespaces/inkscape"
   xmlns:sodipodi="http://sodipodi.sourceforge.net/DTD/sodipodi-0.dtd"
   xmlns:xlink="http://www.w3.org/1999/xlink"
   xmlns="http://www.w3.org/2000/svg"
   xmlns:svg="http://www.w3.org/2000/svg"
   xmlns:ns2="http://www.iki.fi/pav/software/textext/">
  <sodipodi:namedview
     id="namedview7"
     pagecolor="#eeeeee"
     bordercolor="#666666"
     borderopacity="1.0"
     inkscape:pageshadow="2"
     inkscape:pageopacity="1"
     inkscape:pagecheckerboard="false"
     inkscape:document-units="mm"
     showgrid="false"
     inkscape:zoom="0.94867184"
     inkscape:cx="354.70643"
     inkscape:cy="129.65495"
     inkscape:window-width="1920"
     inkscape:window-height="1046"
     inkscape:window-x="-11"
     inkscape:window-y="-11"
     inkscape:window-maximized="1"
     inkscape:current-layer="g847"
     width="150.54903mm"
     height="79.683319mm" />
  <defs
     id="defs2">
    <marker
       style="overflow:visible"
       id="Arrow1Lend"
       refX="0"
       refY="0"
       orient="auto"
       inkscape:stockid="Arrow1Lend"
       inkscape:isstock="true">
      <path
         transform="matrix(-0.8,0,0,-0.8,-10,0)"
         style="fill:context-stroke;fill-rule:evenodd;stroke:context-stroke;stroke-width:1pt"
         d="M 0,0 5,-5 -12.5,0 5,5 Z"
         id="path1724" />
    </marker>
    <marker
       style="overflow:visible"
       id="Arrow1Mend"
       refX="0"
       refY="0"
       orient="auto"
       inkscape:stockid="Arrow1Mend"
       inkscape:isstock="true">
      <path
         transform="matrix(-0.4,0,0,-0.4,-4,0)"
         style="fill:context-stroke;fill-rule:evenodd;stroke:context-stroke;stroke-width:1pt"
         d="M 0,0 5,-5 -12.5,0 5,5 Z"
         id="path1730" />
    </marker>
    <g
       id="id-b52a0f44-bc2a-4212-82a4-78b1e2263bc2">
      <symbol
         overflow="visible"
         id="id-011788b0-fd00-4b07-ad0c-2fa60b0adab3">
        <path
           style="stroke:none;stroke-width:0"
           d=""
           id="id-b5903f16-bb47-4fc3-a110-4291f672fae7" />
      </symbol>
      <symbol
         overflow="visible"
         id="id-f4506f0f-6042-4c23-9e70-82777b4876be">
        <path
           style="stroke:none;stroke-width:0"
           d="m 1.90625,-2.328125 c 0.546875,0 0.9375,0.375 0.9375,1.125 0,0.859375 -0.515625,1.125 -0.90625,1.125 -0.28125,0 -0.90625,-0.078125 -1.1875,-0.5 0.328125,0 0.40625,-0.234375 0.40625,-0.390625 0,-0.21875 -0.171875,-0.375 -0.390625,-0.375 -0.1875,0 -0.390625,0.125 -0.390625,0.40625 0,0.65625 0.71875,1.078125 1.5625,1.078125 0.96875,0 1.640625,-0.65625 1.640625,-1.34375 0,-0.546875 -0.4375,-1.09375 -1.203125,-1.25 0.71875,-0.265625 0.984375,-0.78125 0.984375,-1.21875 0,-0.546875 -0.625,-0.953125 -1.40625,-0.953125 -0.765625,0 -1.359375,0.375 -1.359375,0.9375 0,0.234375 0.15625,0.359375 0.359375,0.359375 0.21875,0 0.359375,-0.15625 0.359375,-0.34375 0,-0.203125 -0.140625,-0.359375 -0.359375,-0.375 0.25,-0.296875 0.71875,-0.375 0.984375,-0.375 0.3125,0 0.75,0.15625 0.75,0.75 0,0.296875 -0.09375,0.625 -0.28125,0.828125 -0.21875,0.265625 -0.421875,0.28125 -0.765625,0.3125 -0.171875,0.015625 -0.1875,0.015625 -0.21875,0.015625 -0.015625,0 -0.078125,0.015625 -0.078125,0.09375 0,0.09375 0.0625,0.09375 0.1875,0.09375 z m 0,0"
           id="id-3502ca0b-7ccf-4eee-a27b-d603ef018a05" />
      </symbol>
      <symbol
         overflow="visible"
         id="id-1c09746f-9f66-4cde-8df3-133f55181e87">
        <path
           style="stroke:none;stroke-width:0"
           d=""
           id="id-9a375e07-bde2-4756-ac14-ddcb2293f401" />
      </symbol>
      <symbol
         overflow="visible"
         id="id-f1b8d31f-fd1c-48e0-bb67-c46be62f4511">
        <path
           style="stroke:none;stroke-width:0"
           d="M 6.265625,-5.671875 C 6.75,-6.453125 7.171875,-6.484375 7.53125,-6.5 c 0.125,-0.015625 0.140625,-0.171875 0.140625,-0.1875 0,-0.078125 -0.0625,-0.125 -0.140625,-0.125 -0.25,0 -0.546875,0.03125 -0.8125,0.03125 -0.328125,0 -0.671875,-0.03125 -0.984375,-0.03125 -0.0625,0 -0.1875,0 -0.1875,0.1875 0,0.109375 0.078125,0.125 0.15625,0.125 0.265625,0.015625 0.453125,0.125 0.453125,0.328125 0,0.15625 -0.140625,0.375 -0.140625,0.375 l -3.0625,4.875 -0.6875,-5.28125 C 2.265625,-6.375 2.5,-6.5 2.953125,-6.5 c 0.140625,0 0.25,0 0.25,-0.203125 0,-0.078125 -0.078125,-0.109375 -0.125,-0.109375 -0.40625,0 -0.828125,0.03125 -1.25,0.03125 -0.171875,0 -0.359375,0 -0.546875,0 -0.171875,0 -0.359375,-0.03125 -0.53125,-0.03125 -0.078125,0 -0.1875,0 -0.1875,0.1875 0,0.125 0.078125,0.125 0.25,0.125 0.546875,0 0.5625,0.09375 0.59375,0.34375 L 2.1875,-0.015625 C 2.21875,0.1875 2.265625,0.21875 2.390625,0.21875 c 0.15625,0 0.203125,-0.046875 0.28125,-0.171875 z m 0,0"
           id="id-30896f68-277a-434a-ac7b-e85dedf89288" />
      </symbol>
      <symbol
         overflow="visible"
         id="id-60d373e5-0286-412f-aa58-1014dd5a7c97">
        <path
           style="stroke:none;stroke-width:0"
           d="M 9.234375,-6.046875 C 9.328125,-6.40625 9.34375,-6.5 10.09375,-6.5 c 0.21875,0 0.3125,0 0.3125,-0.203125 0,-0.109375 -0.09375,-0.109375 -0.265625,-0.109375 h -1.3125 c -0.265625,0 -0.28125,0 -0.390625,0.1875 L 4.796875,-0.9375 4.015625,-6.578125 C 3.984375,-6.8125 3.96875,-6.8125 3.703125,-6.8125 H 2.34375 c -0.1875,0 -0.296875,0 -0.296875,0.1875 0,0.125 0.09375,0.125 0.28125,0.125 0.140625,0 0.3125,0.015625 0.4375,0.015625 0.15625,0.03125 0.21875,0.046875 0.21875,0.171875 0,0.03125 -0.015625,0.0625 -0.046875,0.1875 l -1.265625,5.0625 c -0.09375,0.40625 -0.265625,0.71875 -1.078125,0.75 -0.046875,0 -0.171875,0.015625 -0.171875,0.1875 0,0.09375 0.0625,0.125 0.140625,0.125 0.3125,0 0.65625,-0.03125 1,-0.03125 C 1.890625,-0.03125 2.25,0 2.578125,0 c 0.046875,0 0.1875,0 0.1875,-0.203125 0,-0.109375 -0.109375,-0.109375 -0.1875,-0.109375 -0.5625,0 -0.671875,-0.203125 -0.671875,-0.4375 0,-0.0625 0,-0.125 0.03125,-0.234375 L 3.296875,-6.40625 H 3.3125 l 0.859375,6.171875 C 4.1875,-0.109375 4.203125,0 4.3125,0 4.421875,0 4.484375,-0.109375 4.53125,-0.171875 l 4.03125,-6.3125 h 0.015625 l -1.4375,5.703125 c -0.09375,0.390625 -0.109375,0.46875 -0.90625,0.46875 -0.15625,0 -0.265625,0 -0.265625,0.1875 C 5.96875,0 6.078125,0 6.109375,0 6.390625,0 7.0625,-0.03125 7.34375,-0.03125 7.75,-0.03125 8.1875,0 8.59375,0 8.65625,0 8.78125,0 8.78125,-0.203125 8.78125,-0.3125 8.6875,-0.3125 8.5,-0.3125 c -0.359375,0 -0.640625,0 -0.640625,-0.171875 0,-0.046875 0,-0.0625 0.046875,-0.25 z m 0,0"
           id="id-826b5ed0-0502-4180-a690-0c5344dfe5e8" />
      </symbol>
      <symbol
         overflow="visible"
         id="id-9906c858-51f6-45af-856d-6dd0355e02df">
        <path
           style="stroke:none;stroke-width:0"
           d=""
           id="id-c5c5c2c4-4470-436f-a1a1-b0305d908964" />
      </symbol>
      <symbol
         overflow="visible"
         id="id-493d5a06-457a-4f1e-91e7-60abffbe927e">
        <path
           style="stroke:none;stroke-width:0"
           d="m 2.1875,-4.625 c 0,-0.015625 0.015625,-0.109375 0.015625,-0.109375 0,-0.046875 -0.015625,-0.109375 -0.109375,-0.109375 -0.140625,0 -0.71875,0.0625 -0.890625,0.078125 -0.046875,0 -0.15625,0.015625 -0.15625,0.15625 0,0.09375 0.109375,0.09375 0.1875,0.09375 0.328125,0 0.328125,0.0625 0.328125,0.109375 0,0.046875 -0.015625,0.09375 -0.015625,0.15625 L 0.5625,-0.3125 c -0.046875,0.125 -0.046875,0.140625 -0.046875,0.15625 0,0.109375 0.09375,0.21875 0.25,0.21875 0.1875,0 0.265625,-0.125 0.3125,-0.28125 0.015625,-0.03125 0.3125,-1.265625 0.34375,-1.359375 0.5,0.046875 0.890625,0.21875 0.890625,0.578125 0,0.03125 0,0.0625 -0.015625,0.140625 -0.03125,0.09375 -0.03125,0.140625 -0.03125,0.21875 0,0.484375 0.40625,0.703125 0.75,0.703125 0.671875,0 0.875,-1.046875 0.875,-1.0625 0,-0.09375 -0.078125,-0.09375 -0.109375,-0.09375 -0.09375,0 -0.109375,0.046875 -0.140625,0.171875 C 3.5625,-0.625 3.375,-0.125 3.03125,-0.125 c -0.1875,0 -0.25,-0.171875 -0.25,-0.359375 0,-0.125 0,-0.140625 0.046875,-0.3125 0.015625,-0.03125 0.03125,-0.140625 0.03125,-0.21875 0,-0.625 -0.828125,-0.71875 -1.125,-0.734375 C 1.9375,-1.875 2.1875,-2.109375 2.3125,-2.21875 2.671875,-2.546875 3.015625,-2.875 3.40625,-2.875 c 0.078125,0 0.171875,0.015625 0.234375,0.09375 C 3.34375,-2.734375 3.28125,-2.5 3.28125,-2.390625 c 0,0.140625 0.109375,0.25 0.265625,0.25 0.203125,0 0.40625,-0.15625 0.40625,-0.4375 0,-0.234375 -0.171875,-0.5 -0.53125,-0.5 -0.40625,0 -0.765625,0.296875 -1.125,0.625 C 2,-2.1875 1.78125,-1.96875 1.484375,-1.84375 Z m 0,0"
           id="id-b9a0d958-d578-4a57-9300-f770892be196" />
      </symbol>
    </g>
    <g
       id="id-3fd8869a-2371-46c5-af3e-b6c818041753">
      <symbol
         overflow="visible"
         id="id-fcfc4456-eb34-485b-a4cf-c8094f80f8b1">
        <path
           style="stroke:none;stroke-width:0"
           d=""
           id="id-ea31d7fe-cdcc-4b3b-a559-98588aed88a9" />
      </symbol>
      <symbol
         overflow="visible"
         id="id-e57477cb-8bdf-49b6-8702-ae8f77a1a450">
        <path
           style="stroke:none;stroke-width:0"
           d="m 6.640625,-6.75 h -6.09375 l -0.1875,2.25 h 0.25 C 0.75,-6.109375 0.890625,-6.4375 2.40625,-6.4375 c 0.171875,0 0.4375,0 0.53125,0.015625 0.21875,0.046875 0.21875,0.15625 0.21875,0.375 v 5.265625 c 0,0.328125 0,0.46875 -1.046875,0.46875 H 1.703125 V 0 C 2.109375,-0.03125 3.125,-0.03125 3.59375,-0.03125 c 0.453125,0 1.484375,0 1.890625,0.03125 v -0.3125 h -0.40625 c -1.046875,0 -1.046875,-0.140625 -1.046875,-0.46875 v -5.265625 c 0,-0.1875 0,-0.328125 0.1875,-0.375 0.109375,-0.015625 0.375,-0.015625 0.5625,-0.015625 1.515625,0 1.65625,0.328125 1.796875,1.9375 h 0.25 z m 0,0"
           id="id-269e1929-212c-42fa-a26d-674bd7096e80" />
      </symbol>
      <symbol
         overflow="visible"
         id="id-a0d429af-9bf4-40cc-82ac-0ba8e55dca8d">
        <path
           style="stroke:none;stroke-width:0"
           d=""
           id="id-8bc019d2-c982-49c8-9478-0b60fc6e0c0e" />
      </symbol>
      <symbol
         overflow="visible"
         id="id-2c52ee8f-76bc-4ad9-b424-9513b5a9ba5b">
        <path
           style="stroke:none;stroke-width:0"
           d="m 2.640625,-3.71875 h 1.125 C 3.4375,-2.25 3.34375,-1.8125 3.34375,-1.140625 c 0,0.140625 0,0.40625 0.078125,0.75 0.109375,0.4375 0.21875,0.5 0.359375,0.5 0.203125,0 0.421875,-0.171875 0.421875,-0.375 0,-0.0625 0,-0.078125 -0.0625,-0.21875 -0.296875,-0.71875 -0.296875,-1.375 -0.296875,-1.65625 0,-0.515625 0.078125,-1.0625 0.1875,-1.578125 h 1.125 c 0.140625,0 0.5,0 0.5,-0.34375 0,-0.234375 -0.21875,-0.234375 -0.40625,-0.234375 H 1.90625 c -0.21875,0 -0.59375,0 -1.03125,0.46875 -0.34375,0.390625 -0.609375,0.84375 -0.609375,0.890625 0,0.015625 0,0.109375 0.125,0.109375 0.078125,0 0.09375,-0.046875 0.15625,-0.125 C 1.03125,-3.71875 1.609375,-3.71875 1.8125,-3.71875 H 2.375 C 2.0625,-2.515625 1.53125,-1.3125 1.109375,-0.40625 1.03125,-0.25 1.03125,-0.234375 1.03125,-0.15625 c 0,0.1875 0.15625,0.265625 0.28125,0.265625 0.296875,0 0.375,-0.28125 0.5,-0.640625 C 1.953125,-1 1.953125,-1.015625 2.078125,-1.515625 Z m 0,0"
           id="id-0f6dc41e-94e1-4564-8129-0034fd8a67a3" />
      </symbol>
    </g>
  </defs>
  <g
     inkscape:label="Layer 1"
     inkscape:groupmode="layer"
     id="layer1"
     transform="translate(-30.4057, -88.5479)">
    <g
       transform="matrix(2.20456 0 0 2.56059 68.9641 117.012)"
       ns2:version="1.7.1"
       ns2:texconverter="pdflatex"
       ns2:pdfconverter="inkscape"
       ns2:text="$TM$"
       ns2:preamble="C:\Users\Shubhang Sharma\AppData\Roaming\inkscape\extensions\textext\default_packages.tex"
       ns2:scale="1.0149999999999983"
       ns2:alignment="middle center"
       ns2:stroke-to-path="0"
       ns2:jacobian_sqrt="0.35807"
       id="g847">
      <defs
         id="id-1931434e-f5af-4b99-985f-fb2bcd86bc04">
        <g
           id="id-f23cd4a1-a2b2-45c8-b1d9-38ff8e32a9c1">
          <symbol
             overflow="visible"
             id="id-ed8aace8-7e0b-4a1e-8cc3-e206fc8275f0">
            <path
               style="stroke:none;stroke-width:0"
               d=""
               id="id-cc9afe69-51a0-4cab-9319-74a8945f12e6" />
          </symbol>
          <symbol
             overflow="visible"
             id="id-ef4b3f8d-67f0-42d7-8898-2fe473be94e4">
            <path
               style="stroke:none;stroke-width:0"
               d="m 4.25,-6.046875 c 0.078125,-0.28125 0.109375,-0.34375 0.234375,-0.375 0.09375,-0.015625 0.421875,-0.015625 0.625,-0.015625 1.015625,0 1.453125,0.03125 1.453125,0.8125 0,0.15625 -0.03125,0.546875 -0.078125,0.796875 0,0.046875 -0.03125,0.15625 -0.03125,0.1875 0,0.0625 0.03125,0.140625 0.125,0.140625 0.109375,0 0.125,-0.078125 0.15625,-0.234375 L 7,-6.46875 C 7.015625,-6.515625 7.015625,-6.609375 7.015625,-6.640625 7.015625,-6.75 6.921875,-6.75 6.75,-6.75 H 1.21875 c -0.234375,0 -0.25,0.015625 -0.328125,0.203125 l -0.59375,1.75 c 0,0.015625 -0.0625,0.15625 -0.0625,0.1875 0,0.046875 0.0625,0.109375 0.125,0.109375 0.09375,0 0.109375,-0.0625 0.171875,-0.21875 C 1.0625,-6.265625 1.328125,-6.4375 2.796875,-6.4375 H 3.1875 c 0.28125,0 0.28125,0.03125 0.28125,0.125 0,0.046875 -0.03125,0.171875 -0.046875,0.203125 L 2.09375,-0.78125 C 2,-0.421875 1.96875,-0.3125 0.90625,-0.3125 c -0.359375,0 -0.421875,0 -0.421875,0.1875 C 0.484375,0 0.59375,0 0.65625,0 c 0.265625,0 0.546875,-0.015625 0.8125,-0.015625 0.28125,0 0.578125,-0.015625 0.859375,-0.015625 0.28125,0 0.546875,0.015625 0.828125,0.015625 C 3.4375,-0.015625 3.734375,0 4.015625,0 c 0.09375,0 0.21875,0 0.21875,-0.203125 0,-0.109375 -0.078125,-0.109375 -0.34375,-0.109375 -0.234375,0 -0.375,0 -0.625,-0.015625 -0.296875,-0.03125 -0.375,-0.0625 -0.375,-0.21875 0,-0.015625 0,-0.0625 0.046875,-0.203125 z m 0,0"
               id="id-2d996dd9-8b14-4aee-93d2-1b68eef33878" />
          </symbol>
          <symbol
             overflow="visible"
             id="id-21aab7d9-aa31-4fbf-94e1-e69f00c0c265">
            <path
               style="stroke:none;stroke-width:0"
               d="M 9.234375,-6.046875 C 9.328125,-6.40625 9.34375,-6.5 10.09375,-6.5 c 0.21875,0 0.3125,0 0.3125,-0.203125 0,-0.109375 -0.09375,-0.109375 -0.265625,-0.109375 h -1.3125 c -0.265625,0 -0.28125,0 -0.390625,0.1875 L 4.796875,-0.9375 4.015625,-6.578125 C 3.984375,-6.8125 3.96875,-6.8125 3.703125,-6.8125 H 2.34375 c -0.1875,0 -0.296875,0 -0.296875,0.1875 0,0.125 0.09375,0.125 0.28125,0.125 0.140625,0 0.3125,0.015625 0.4375,0.015625 0.15625,0.03125 0.21875,0.046875 0.21875,0.171875 0,0.03125 -0.015625,0.0625 -0.046875,0.1875 l -1.265625,5.0625 c -0.09375,0.40625 -0.265625,0.71875 -1.078125,0.75 -0.046875,0 -0.171875,0.015625 -0.171875,0.1875 0,0.09375 0.0625,0.125 0.140625,0.125 0.3125,0 0.65625,-0.03125 1,-0.03125 C 1.890625,-0.03125 2.25,0 2.578125,0 c 0.046875,0 0.1875,0 0.1875,-0.203125 0,-0.109375 -0.109375,-0.109375 -0.1875,-0.109375 -0.5625,0 -0.671875,-0.203125 -0.671875,-0.4375 0,-0.0625 0,-0.125 0.03125,-0.234375 L 3.296875,-6.40625 H 3.3125 l 0.859375,6.171875 C 4.1875,-0.109375 4.203125,0 4.3125,0 4.421875,0 4.484375,-0.109375 4.53125,-0.171875 l 4.03125,-6.3125 h 0.015625 l -1.4375,5.703125 c -0.09375,0.390625 -0.109375,0.46875 -0.90625,0.46875 -0.15625,0 -0.265625,0 -0.265625,0.1875 C 5.96875,0 6.078125,0 6.109375,0 6.390625,0 7.0625,-0.03125 7.34375,-0.03125 7.75,-0.03125 8.1875,0 8.59375,0 8.65625,0 8.78125,0 8.78125,-0.203125 8.78125,-0.3125 8.6875,-0.3125 8.5,-0.3125 c -0.359375,0 -0.640625,0 -0.640625,-0.171875 0,-0.046875 0,-0.0625 0.046875,-0.25 z m 0,0"
               id="id-4269ce1b-acb0-48dc-8c0f-0b5837b917ac" />
          </symbol>
        </g>
      </defs>
      <path
         style="fill:none;fill-opacity:1;stroke:#000000;stroke-width:0.14015649;stroke-linecap:butt;stroke-linejoin:miter;stroke-miterlimit:4;stroke-dasharray:1.12125194,0.56062597;stroke-opacity:1;marker-end:url(#Arrow1Lend);stroke-dashoffset:0"
         d="m -1.3740892,3.9866098 c 0,0 22.8264062,-9.0033962 51.0501902,0"
         id="path1541"
         inkscape:export-filename="D:\Projects\Projections\resource\img\path1541.png"
         inkscape:export-xdpi="500"
         inkscape:export-ydpi="500" />
      <use
         x="0"
         y="0"
         xlink:href="#path1541"
         id="use1997"
         transform="rotate(180,24.267798,7.8010178)"
         width="100%"
         height="100%"
         style="stroke:#000000;stroke-opacity:1;stroke-width:1.00003558;stroke-miterlimit:4;stroke-dasharray:1.00003558,3.00010674;stroke-dashoffset:0"
         inkscape:export-filename="D:\Projects\Projections\resource\img\path1541.png"
         inkscape:export-xdpi="500"
         inkscape:export-ydpi="500" />
      <g
         transform="matrix(0.66682021,0,0,0.57410495,46.623721,4.9857153)"
         ns2:version="1.7.1"
         ns2:texconverter="pdflatex"
         ns2:pdfconverter="inkscape"
         ns2:text="$\\mathbb{P}S^2$"
         ns2:preamble="C:\Users\Shubhang Sharma\AppData\Roaming\inkscape\extensions\textext\default_packages.tex"
         ns2:scale="1.0149999999999983"
         ns2:alignment="middle center"
         ns2:stroke-to-path="0"
         ns2:jacobian_sqrt="0.18943852693684038"
         id="g2103"
         inkscape:export-filename="D:\Projects\Projections\resource\img\path1541.png"
         inkscape:export-xdpi="500"
         inkscape:export-ydpi="500">
        <defs
           id="id-4fcbd024-c73a-4b1e-b722-829ad6716edf">
          <g
             id="id-5a5758f7-bff3-4f49-a851-acab132fd91d">
            <symbol
               overflow="visible"
               id="id-73655a15-94bb-406a-a6e6-f3008a315645">
              <path
                 style="stroke:none;stroke-width:0"
                 d=""
                 id="id-9113aaad-1cf9-4aea-8694-67c2ef83539b" />
            </symbol>
            <symbol
               overflow="visible"
               id="id-eaa1d7a9-42f9-4902-a12e-dd1e781c2db3">
              <path
                 style="stroke:none;stroke-width:0"
                 d="m 2.609375,-3.078125 c 0.046875,0 0.25,0 0.265625,0.015625 h 0.34375 c 2.03125,0 2.75,-0.9375 2.75,-1.890625 0,-1.421875 -1.28125,-1.875 -2.5625,-1.875 H 0.5 c -0.1875,0 -0.34375,0 -0.34375,0.171875 0,0.171875 0.1875,0.171875 0.265625,0.171875 0.53125,0 0.5625,0.078125 0.5625,0.578125 v 4.984375 c 0,0.5 -0.03125,0.578125 -0.546875,0.578125 -0.09375,0 -0.28125,0 -0.28125,0.171875 C 0.15625,0 0.3125,0 0.5,0 H 3.171875 C 3.34375,0 3.5,0 3.5,-0.171875 3.5,-0.34375 3.328125,-0.34375 3.21875,-0.34375 c -0.5625,0 -0.609375,-0.078125 -0.609375,-0.578125 z M 4.25,-3.515625 C 4.578125,-3.9375 4.609375,-4.5625 4.609375,-4.96875 4.609375,-5.5 4.5625,-6.015625 4.296875,-6.390625 4.84375,-6.265625 5.625,-5.96875 5.625,-4.953125 5.625,-4.25 5.171875,-3.75 4.25,-3.515625 Z M 2.609375,-5.9375 c 0,-0.203125 0,-0.546875 0.59375,-0.546875 0.71875,0 1.046875,0.28125 1.046875,1.515625 0,1.4375 -0.515625,1.546875 -1.140625,1.546875 h -0.5 z M 1.25,-0.34375 c 0.078125,-0.1875 0.078125,-0.421875 0.078125,-0.546875 V -5.9375 c 0,-0.125 0,-0.359375 -0.078125,-0.546875 h 1.140625 c -0.125,0.171875 -0.125,0.359375 -0.125,0.515625 v 5.078125 c 0,0.09375 0,0.359375 0.078125,0.546875 z m 0,0"
                 id="id-a62f6f49-6c24-42de-a82e-9c36876bf35e" />
            </symbol>
            <symbol
               overflow="visible"
               id="id-2a265193-5dbb-407d-af5f-b886839b32ad">
              <path
                 style="stroke:none;stroke-width:0"
                 d=""
                 id="id-1efef1a2-cdfb-40f3-b002-b4b66bfb62d7" />
            </symbol>
            <symbol
               overflow="visible"
               id="id-899f3497-8558-410c-acbd-cfa869a7893b">
              <path
                 style="stroke:none;stroke-width:0"
                 d="m 6.4375,-6.921875 c 0,-0.03125 -0.03125,-0.109375 -0.125,-0.109375 -0.046875,0 -0.046875,0.015625 -0.171875,0.15625 L 5.65625,-6.3125 c -0.25,-0.46875 -0.765625,-0.71875 -1.421875,-0.71875 -1.265625,0 -2.453125,1.15625 -2.453125,2.359375 0,0.796875 0.515625,1.265625 1.03125,1.40625 l 1.0625,0.28125 c 0.375,0.09375 0.921875,0.25 0.921875,1.0625 0,0.890625 -0.8125,1.828125 -1.796875,1.828125 -0.640625,0 -1.75,-0.21875 -1.75,-1.453125 0,-0.234375 0.0625,-0.484375 0.0625,-0.53125 0.015625,-0.046875 0.015625,-0.0625 0.015625,-0.078125 0,-0.09375 -0.0625,-0.109375 -0.109375,-0.109375 -0.046875,0 -0.078125,0.015625 -0.109375,0.046875 -0.03125,0.03125 -0.59375,2.3125 -0.59375,2.34375 0,0.046875 0.046875,0.09375 0.109375,0.09375 0.046875,0 0.0625,-0.015625 0.1875,-0.15625 L 1.296875,-0.5 c 0.421875,0.578125 1.109375,0.71875 1.6875,0.71875 1.359375,0 2.53125,-1.328125 2.53125,-2.5625 0,-0.6875 -0.34375,-1.03125 -0.484375,-1.171875 C 4.796875,-3.734375 4.640625,-3.78125 3.765625,-4 3.53125,-4.0625 3.1875,-4.171875 3.09375,-4.1875 2.828125,-4.28125 2.484375,-4.5625 2.484375,-5.09375 c 0,-0.8125 0.796875,-1.65625 1.75,-1.65625 0.8125,0 1.421875,0.4375 1.421875,1.546875 0,0.3125 -0.03125,0.5 -0.03125,0.5625 0,0 0,0.09375 0.109375,0.09375 0.109375,0 0.125,-0.03125 0.15625,-0.203125 z m 0,0"
                 id="id-5dcb9788-d584-4fdf-b56b-143fb1959a11" />
            </symbol>
            <symbol
               overflow="visible"
               id="id-6af3c647-81cd-4c89-b15b-dba42ccc6694">
              <path
                 style="stroke:none;stroke-width:0"
                 d=""
                 id="id-6edd6c4c-3a17-417b-80ab-13fe07f6fe9a" />
            </symbol>
            <symbol
               overflow="visible"
               id="id-7c32f26f-12ff-420c-a185-3fedbc135a4c">
              <path
                 style="stroke:none;stroke-width:0"
                 d="M 3.515625,-1.265625 H 3.28125 c -0.015625,0.15625 -0.09375,0.5625 -0.1875,0.625 C 3.046875,-0.59375 2.515625,-0.59375 2.40625,-0.59375 H 1.125 c 0.734375,-0.640625 0.984375,-0.84375 1.390625,-1.171875 0.515625,-0.40625 1,-0.84375 1,-1.5 0,-0.84375 -0.734375,-1.359375 -1.625,-1.359375 -0.859375,0 -1.453125,0.609375 -1.453125,1.25 0,0.34375 0.296875,0.390625 0.375,0.390625 0.15625,0 0.359375,-0.125 0.359375,-0.375 0,-0.125 -0.046875,-0.375 -0.40625,-0.375 C 0.984375,-4.21875 1.453125,-4.375 1.78125,-4.375 c 0.703125,0 1.0625,0.546875 1.0625,1.109375 0,0.609375 -0.4375,1.078125 -0.65625,1.328125 L 0.515625,-0.265625 C 0.4375,-0.203125 0.4375,-0.1875 0.4375,0 h 2.875 z m 0,0"
                 id="id-59358b71-ae6c-4432-a39e-e1bbeb27a465" />
            </symbol>
          </g>
        </defs>
        <g
           id="id-5b933d1b-e1cf-42ce-968a-e37acec68355"
           transform="translate(-148.868,-126.524)">
          <g
             style="fill:#000000;fill-opacity:1"
             id="id-29005a69-c0e5-4d38-82ac-b5366422fd5e">
            <g
               transform="translate(148.712,134.765)"
               id="g2091">
              <path
                 style="stroke:none;stroke-width:0"
                 d="m 2.609375,-3.078125 c 0.046875,0 0.25,0 0.265625,0.015625 h 0.34375 c 2.03125,0 2.75,-0.9375 2.75,-1.890625 0,-1.421875 -1.28125,-1.875 -2.5625,-1.875 H 0.5 c -0.1875,0 -0.34375,0 -0.34375,0.171875 0,0.171875 0.1875,0.171875 0.265625,0.171875 0.53125,0 0.5625,0.078125 0.5625,0.578125 v 4.984375 c 0,0.5 -0.03125,0.578125 -0.546875,0.578125 -0.09375,0 -0.28125,0 -0.28125,0.171875 C 0.15625,0 0.3125,0 0.5,0 H 3.171875 C 3.34375,0 3.5,0 3.5,-0.171875 3.5,-0.34375 3.328125,-0.34375 3.21875,-0.34375 c -0.5625,0 -0.609375,-0.078125 -0.609375,-0.578125 z M 4.25,-3.515625 C 4.578125,-3.9375 4.609375,-4.5625 4.609375,-4.96875 4.609375,-5.5 4.5625,-6.015625 4.296875,-6.390625 4.84375,-6.265625 5.625,-5.96875 5.625,-4.953125 5.625,-4.25 5.171875,-3.75 4.25,-3.515625 Z M 2.609375,-5.9375 c 0,-0.203125 0,-0.546875 0.59375,-0.546875 0.71875,0 1.046875,0.28125 1.046875,1.515625 0,1.4375 -0.515625,1.546875 -1.140625,1.546875 h -0.5 z M 1.25,-0.34375 c 0.078125,-0.1875 0.078125,-0.421875 0.078125,-0.546875 V -5.9375 c 0,-0.125 0,-0.359375 -0.078125,-0.546875 h 1.140625 c -0.125,0.171875 -0.125,0.359375 -0.125,0.515625 v 5.078125 c 0,0.09375 0,0.359375 0.078125,0.546875 z m 0,0"
                 id="id-29c419d1-7de5-49b0-9755-abe50c9f5578" />
            </g>
          </g>
          <g
             style="fill:#000000;fill-opacity:1"
             id="id-2f4ea0c2-3f2f-41f6-99ec-587ab797f97e">
            <g
               transform="translate(154.801,134.765)"
               id="g2095">
              <path
                 style="stroke:none;stroke-width:0"
                 d="m 6.4375,-6.921875 c 0,-0.03125 -0.03125,-0.109375 -0.125,-0.109375 -0.046875,0 -0.046875,0.015625 -0.171875,0.15625 L 5.65625,-6.3125 c -0.25,-0.46875 -0.765625,-0.71875 -1.421875,-0.71875 -1.265625,0 -2.453125,1.15625 -2.453125,2.359375 0,0.796875 0.515625,1.265625 1.03125,1.40625 l 1.0625,0.28125 c 0.375,0.09375 0.921875,0.25 0.921875,1.0625 0,0.890625 -0.8125,1.828125 -1.796875,1.828125 -0.640625,0 -1.75,-0.21875 -1.75,-1.453125 0,-0.234375 0.0625,-0.484375 0.0625,-0.53125 0.015625,-0.046875 0.015625,-0.0625 0.015625,-0.078125 0,-0.09375 -0.0625,-0.109375 -0.109375,-0.109375 -0.046875,0 -0.078125,0.015625 -0.109375,0.046875 -0.03125,0.03125 -0.59375,2.3125 -0.59375,2.34375 0,0.046875 0.046875,0.09375 0.109375,0.09375 0.046875,0 0.0625,-0.015625 0.1875,-0.15625 L 1.296875,-0.5 c 0.421875,0.578125 1.109375,0.71875 1.6875,0.71875 1.359375,0 2.53125,-1.328125 2.53125,-2.5625 0,-0.6875 -0.34375,-1.03125 -0.484375,-1.171875 C 4.796875,-3.734375 4.640625,-3.78125 3.765625,-4 3.53125,-4.0625 3.1875,-4.171875 3.09375,-4.1875 2.828125,-4.28125 2.484375,-4.5625 2.484375,-5.09375 c 0,-0.8125 0.796875,-1.65625 1.75,-1.65625 0.8125,0 1.421875,0.4375 1.421875,1.546875 0,0.3125 -0.03125,0.5 -0.03125,0.5625 0,0 0,0.09375 0.109375,0.09375 0.109375,0 0.125,-0.03125 0.15625,-0.203125 z m 0,0"
                 id="id-d6f338b7-2fa8-4517-942f-744bc3780bab" />
            </g>
          </g>
          <g
             style="fill:#000000;fill-opacity:1"
             id="id-f065d899-8665-425a-98d5-f3c8cb105534">
            <g
               transform="translate(161.484,131.149)"
               id="g2099">
              <path
                 style="stroke:none;stroke-width:0"
                 d="M 3.515625,-1.265625 H 3.28125 c -0.015625,0.15625 -0.09375,0.5625 -0.1875,0.625 C 3.046875,-0.59375 2.515625,-0.59375 2.40625,-0.59375 H 1.125 c 0.734375,-0.640625 0.984375,-0.84375 1.390625,-1.171875 0.515625,-0.40625 1,-0.84375 1,-1.5 0,-0.84375 -0.734375,-1.359375 -1.625,-1.359375 -0.859375,0 -1.453125,0.609375 -1.453125,1.25 0,0.34375 0.296875,0.390625 0.375,0.390625 0.15625,0 0.359375,-0.125 0.359375,-0.375 0,-0.125 -0.046875,-0.375 -0.40625,-0.375 C 0.984375,-4.21875 1.453125,-4.375 1.78125,-4.375 c 0.703125,0 1.0625,0.546875 1.0625,1.109375 0,0.609375 -0.4375,1.078125 -0.65625,1.328125 L 0.515625,-0.265625 C 0.4375,-0.203125 0.4375,-0.1875 0.4375,0 h 2.875 z m 0,0"
                 id="id-bf6e9bac-a655-48b3-a9ca-d63874d2a552" />
            </g>
          </g>
        </g>
      </g>
      <path
         style="fill:none;stroke:#000000;stroke-width:0.14020001;stroke-linecap:butt;stroke-linejoin:miter;stroke-miterlimit:4;stroke-dasharray:3.3648002,0.14020001;stroke-dashoffset:0;stroke-opacity:1"
         d="m 2.111716,8.1494694 h 41.155"
         id="path2184"
         inkscape:export-filename="D:\Projects\Projections\resource\img\path1541.png"
         inkscape:export-xdpi="500"
         inkscape:export-ydpi="500" />
      <g
         transform="matrix(0.91870825,0,0,0.79097028,22.476547,-5.0168506)"
         ns2:version="1.7.1"
         ns2:texconverter="pdflatex"
         ns2:pdfconverter="inkscape"
         ns2:text="$\\pi$"
         ns2:preamble="C:\Users\Shubhang Sharma\AppData\Roaming\inkscape\extensions\textext\default_packages.tex"
         ns2:scale="1.0149999999999983"
         ns2:alignment="middle center"
         ns2:stroke-to-path="0"
         ns2:jacobian_sqrt="0.18943852693684038"
         id="g2432"
         inkscape:export-filename="D:\Projects\Projections\resource\img\path1541.png"
         inkscape:export-xdpi="500"
         inkscape:export-ydpi="500">
        <defs
           id="id-57ecaf3c-bf5f-4c4d-a995-451698a11ec8">
          <g
             id="id-adaa1f6d-f19b-4b88-ab79-4a9b6e16addb">
            <symbol
               overflow="visible"
               id="id-0bdbf68c-1ed0-4e9c-866b-1d2c01ac90fb">
              <path
                 style="stroke:none;stroke-width:0"
                 d=""
                 id="id-cf5a4a5a-2d70-4a84-9d15-29e550152392" />
            </symbol>
            <symbol
               overflow="visible"
               id="id-9c74e570-a48a-40a5-83d4-63db0ca08a8f">
              <path
                 style="stroke:none;stroke-width:0"
                 d="m 2.640625,-3.71875 h 1.125 C 3.4375,-2.25 3.34375,-1.8125 3.34375,-1.140625 c 0,0.140625 0,0.40625 0.078125,0.75 0.109375,0.4375 0.21875,0.5 0.359375,0.5 0.203125,0 0.421875,-0.171875 0.421875,-0.375 0,-0.0625 0,-0.078125 -0.0625,-0.21875 -0.296875,-0.71875 -0.296875,-1.375 -0.296875,-1.65625 0,-0.515625 0.078125,-1.0625 0.1875,-1.578125 h 1.125 c 0.140625,0 0.5,0 0.5,-0.34375 0,-0.234375 -0.21875,-0.234375 -0.40625,-0.234375 H 1.90625 c -0.21875,0 -0.59375,0 -1.03125,0.46875 -0.34375,0.390625 -0.609375,0.84375 -0.609375,0.890625 0,0.015625 0,0.109375 0.125,0.109375 0.078125,0 0.09375,-0.046875 0.15625,-0.125 C 1.03125,-3.71875 1.609375,-3.71875 1.8125,-3.71875 H 2.375 C 2.0625,-2.515625 1.53125,-1.3125 1.109375,-0.40625 1.03125,-0.25 1.03125,-0.234375 1.03125,-0.15625 c 0,0.1875 0.15625,0.265625 0.28125,0.265625 0.296875,0 0.375,-0.28125 0.5,-0.640625 C 1.953125,-1 1.953125,-1.015625 2.078125,-1.515625 Z m 0,0"
                 id="id-0b3b1524-4d38-4bd6-a711-d30ddb38569e" />
            </symbol>
          </g>
        </defs>
        <g
           id="id-6a8ec961-c909-4357-997a-6a1a6ed41aa9"
           transform="translate(-148.978,-130.468)">
          <g
             style="fill:#000000;fill-opacity:1"
             id="id-54b92da7-b517-41c8-b590-4ee1ea6e4e95">
            <g
               transform="translate(148.712,134.765)"
               id="g2428">
              <path
                 style="stroke:none;stroke-width:0"
                 d="m 2.640625,-3.71875 h 1.125 C 3.4375,-2.25 3.34375,-1.8125 3.34375,-1.140625 c 0,0.140625 0,0.40625 0.078125,0.75 0.109375,0.4375 0.21875,0.5 0.359375,0.5 0.203125,0 0.421875,-0.171875 0.421875,-0.375 0,-0.0625 0,-0.078125 -0.0625,-0.21875 -0.296875,-0.71875 -0.296875,-1.375 -0.296875,-1.65625 0,-0.515625 0.078125,-1.0625 0.1875,-1.578125 h 1.125 c 0.140625,0 0.5,0 0.5,-0.34375 0,-0.234375 -0.21875,-0.234375 -0.40625,-0.234375 H 1.90625 c -0.21875,0 -0.59375,0 -1.03125,0.46875 -0.34375,0.390625 -0.609375,0.84375 -0.609375,0.890625 0,0.015625 0,0.109375 0.125,0.109375 0.078125,0 0.09375,-0.046875 0.15625,-0.125 C 1.03125,-3.71875 1.609375,-3.71875 1.8125,-3.71875 H 2.375 C 2.0625,-2.515625 1.53125,-1.3125 1.109375,-0.40625 1.03125,-0.25 1.03125,-0.234375 1.03125,-0.15625 c 0,0.1875 0.15625,0.265625 0.28125,0.265625 0.296875,0 0.375,-0.28125 0.5,-0.640625 C 1.953125,-1 1.953125,-1.015625 2.078125,-1.515625 Z m 0,0"
                 id="id-2deacf20-ce7b-446f-aab1-20912b1a2379" />
            </g>
          </g>
        </g>
      </g>
      <g
         transform="matrix(0.71455248,0,0,0.61520049,23.274595,17.152823)"
         ns2:version="1.7.1"
         ns2:texconverter="pdflatex"
         ns2:pdfconverter="inkscape"
         ns2:text="$\\sigma$"
         ns2:preamble="C:\Users\Shubhang Sharma\AppData\Roaming\inkscape\extensions\textext\default_packages.tex"
         ns2:scale="1.0149999999999983"
         ns2:alignment="middle center"
         ns2:stroke-to-path="0"
         ns2:jacobian_sqrt="0.18943852693684038"
         id="g2628"
         inkscape:export-filename="D:\Projects\Projections\resource\img\path1541.png"
         inkscape:export-xdpi="500"
         inkscape:export-ydpi="500">
        <defs
           id="id-6d2719dd-ada4-4644-b36f-378d1e326e25">
          <g
             id="id-3449c02a-4a72-4aab-a3f5-2ce278e32f86">
            <symbol
               overflow="visible"
               id="id-098c9427-9426-4ed3-a22e-ad4d395521b4">
              <path
                 style="stroke:none;stroke-width:0"
                 d=""
                 id="id-1b016a54-f9be-4243-9185-319d38ee8966" />
            </symbol>
            <symbol
               overflow="visible"
               id="id-08f4c16f-5baf-4693-af0e-f9185b46c019">
              <path
                 style="stroke:none;stroke-width:0"
                 d="m 5.15625,-3.71875 c 0.140625,0 0.5,0 0.5,-0.34375 0,-0.234375 -0.21875,-0.234375 -0.390625,-0.234375 h -2.28125 c -1.5,0 -2.609375,1.640625 -2.609375,2.828125 0,0.875 0.59375,1.578125 1.5,1.578125 1.171875,0 2.5,-1.203125 2.5,-2.734375 0,-0.171875 0,-0.65625 -0.3125,-1.09375 z M 1.890625,-0.109375 C 1.390625,-0.109375 1,-0.46875 1,-1.1875 c 0,-0.296875 0.109375,-1.109375 0.46875,-1.703125 0.421875,-0.6875 1.015625,-0.828125 1.359375,-0.828125 0.828125,0 0.90625,0.65625 0.90625,0.96875 0,0.46875 -0.203125,1.28125 -0.53125,1.796875 -0.390625,0.578125 -0.9375,0.84375 -1.3125,0.84375 z m 0,0"
                 id="id-2dd873bb-c3f8-4648-8980-79710decfcc8" />
            </symbol>
          </g>
        </defs>
        <g
           id="id-6ddcae5e-6e14-4c21-aa6d-0f4eab46b35f"
           transform="translate(-149.087,-130.468)">
          <g
             style="fill:#000000;fill-opacity:1"
             id="id-d6f6e581-cd44-4253-876a-3db3d3427c78">
            <g
               transform="translate(148.712,134.765)"
               id="g2624">
              <path
                 style="stroke:none;stroke-width:0"
                 d="m 5.15625,-3.71875 c 0.140625,0 0.5,0 0.5,-0.34375 0,-0.234375 -0.21875,-0.234375 -0.390625,-0.234375 h -2.28125 c -1.5,0 -2.609375,1.640625 -2.609375,2.828125 0,0.875 0.59375,1.578125 1.5,1.578125 1.171875,0 2.5,-1.203125 2.5,-2.734375 0,-0.171875 0,-0.65625 -0.3125,-1.09375 z M 1.890625,-0.109375 C 1.390625,-0.109375 1,-0.46875 1,-1.1875 c 0,-0.296875 0.109375,-1.109375 0.46875,-1.703125 0.421875,-0.6875 1.015625,-0.828125 1.359375,-0.828125 0.828125,0 0.90625,0.65625 0.90625,0.96875 0,0.46875 -0.203125,1.28125 -0.53125,1.796875 -0.390625,0.578125 -0.9375,0.84375 -1.3125,0.84375 z m 0,0"
                 id="id-0d72fb9e-795b-44de-a69f-6177d2a96b44" />
            </g>
          </g>
        </g>
      </g>
      <g
         transform="matrix(0.54515803,0,0,0.46935688,-15.098885,5.4667508)"
         ns2:version="1.7.1"
         ns2:texconverter="pdflatex"
         ns2:pdfconverter="inkscape"
         ns2:text="$_3V^kM$"
         ns2:preamble="C:\Users\Shubhang Sharma\AppData\Roaming\inkscape\extensions\textext\default_packages.tex"
         ns2:scale="1.0149999999999983"
         ns2:alignment="middle center"
         ns2:stroke-to-path="0"
         ns2:jacobian_sqrt="0.15070855946826645"
         id="g2868"
         inkscape:export-filename="D:\Projects\Projections\resource\img\path1541.png"
         inkscape:export-xdpi="500"
         inkscape:export-ydpi="500">
        <defs
           id="id-aadc4b99-e110-4752-9e35-e220381cc431">
          <g
             id="g3461">
            <symbol
               overflow="visible"
               id="symbol3435">
              <path
                 style="stroke:none;stroke-width:0"
                 d=""
                 id="path3433" />
            </symbol>
            <symbol
               overflow="visible"
               id="symbol3439">
              <path
                 style="stroke:none;stroke-width:0"
                 d="m 1.90625,-2.328125 c 0.546875,0 0.9375,0.375 0.9375,1.125 0,0.859375 -0.515625,1.125 -0.90625,1.125 -0.28125,0 -0.90625,-0.078125 -1.1875,-0.5 0.328125,0 0.40625,-0.234375 0.40625,-0.390625 0,-0.21875 -0.171875,-0.375 -0.390625,-0.375 -0.1875,0 -0.390625,0.125 -0.390625,0.40625 0,0.65625 0.71875,1.078125 1.5625,1.078125 0.96875,0 1.640625,-0.65625 1.640625,-1.34375 0,-0.546875 -0.4375,-1.09375 -1.203125,-1.25 0.71875,-0.265625 0.984375,-0.78125 0.984375,-1.21875 0,-0.546875 -0.625,-0.953125 -1.40625,-0.953125 -0.765625,0 -1.359375,0.375 -1.359375,0.9375 0,0.234375 0.15625,0.359375 0.359375,0.359375 0.21875,0 0.359375,-0.15625 0.359375,-0.34375 0,-0.203125 -0.140625,-0.359375 -0.359375,-0.375 0.25,-0.296875 0.71875,-0.375 0.984375,-0.375 0.3125,0 0.75,0.15625 0.75,0.75 0,0.296875 -0.09375,0.625 -0.28125,0.828125 -0.21875,0.265625 -0.421875,0.28125 -0.765625,0.3125 -0.171875,0.015625 -0.1875,0.015625 -0.21875,0.015625 -0.015625,0 -0.078125,0.015625 -0.078125,0.09375 0,0.09375 0.0625,0.09375 0.1875,0.09375 z m 0,0"
                 id="path3437" />
            </symbol>
            <symbol
               overflow="visible"
               id="symbol3443">
              <path
                 style="stroke:none;stroke-width:0"
                 d=""
                 id="path3441" />
            </symbol>
            <symbol
               overflow="visible"
               id="symbol3447">
              <path
                 style="stroke:none;stroke-width:0"
                 d="M 6.265625,-5.671875 C 6.75,-6.453125 7.171875,-6.484375 7.53125,-6.5 c 0.125,-0.015625 0.140625,-0.171875 0.140625,-0.1875 0,-0.078125 -0.0625,-0.125 -0.140625,-0.125 -0.25,0 -0.546875,0.03125 -0.8125,0.03125 -0.328125,0 -0.671875,-0.03125 -0.984375,-0.03125 -0.0625,0 -0.1875,0 -0.1875,0.1875 0,0.109375 0.078125,0.125 0.15625,0.125 0.265625,0.015625 0.453125,0.125 0.453125,0.328125 0,0.15625 -0.140625,0.375 -0.140625,0.375 l -3.0625,4.875 -0.6875,-5.28125 C 2.265625,-6.375 2.5,-6.5 2.953125,-6.5 c 0.140625,0 0.25,0 0.25,-0.203125 0,-0.078125 -0.078125,-0.109375 -0.125,-0.109375 -0.40625,0 -0.828125,0.03125 -1.25,0.03125 -0.171875,0 -0.359375,0 -0.546875,0 -0.171875,0 -0.359375,-0.03125 -0.53125,-0.03125 -0.078125,0 -0.1875,0 -0.1875,0.1875 0,0.125 0.078125,0.125 0.25,0.125 0.546875,0 0.5625,0.09375 0.59375,0.34375 L 2.1875,-0.015625 C 2.21875,0.1875 2.265625,0.21875 2.390625,0.21875 c 0.15625,0 0.203125,-0.046875 0.28125,-0.171875 z m 0,0"
                 id="path3445" />
            </symbol>
            <symbol
               overflow="visible"
               id="symbol3451">
              <path
                 style="stroke:none;stroke-width:0"
                 d="M 9.234375,-6.046875 C 9.328125,-6.40625 9.34375,-6.5 10.09375,-6.5 c 0.21875,0 0.3125,0 0.3125,-0.203125 0,-0.109375 -0.09375,-0.109375 -0.265625,-0.109375 h -1.3125 c -0.265625,0 -0.28125,0 -0.390625,0.1875 L 4.796875,-0.9375 4.015625,-6.578125 C 3.984375,-6.8125 3.96875,-6.8125 3.703125,-6.8125 H 2.34375 c -0.1875,0 -0.296875,0 -0.296875,0.1875 0,0.125 0.09375,0.125 0.28125,0.125 0.140625,0 0.3125,0.015625 0.4375,0.015625 0.15625,0.03125 0.21875,0.046875 0.21875,0.171875 0,0.03125 -0.015625,0.0625 -0.046875,0.1875 l -1.265625,5.0625 c -0.09375,0.40625 -0.265625,0.71875 -1.078125,0.75 -0.046875,0 -0.171875,0.015625 -0.171875,0.1875 0,0.09375 0.0625,0.125 0.140625,0.125 0.3125,0 0.65625,-0.03125 1,-0.03125 C 1.890625,-0.03125 2.25,0 2.578125,0 c 0.046875,0 0.1875,0 0.1875,-0.203125 0,-0.109375 -0.109375,-0.109375 -0.1875,-0.109375 -0.5625,0 -0.671875,-0.203125 -0.671875,-0.4375 0,-0.0625 0,-0.125 0.03125,-0.234375 L 3.296875,-6.40625 H 3.3125 l 0.859375,6.171875 C 4.1875,-0.109375 4.203125,0 4.3125,0 4.421875,0 4.484375,-0.109375 4.53125,-0.171875 l 4.03125,-6.3125 h 0.015625 l -1.4375,5.703125 c -0.09375,0.390625 -0.109375,0.46875 -0.90625,0.46875 -0.15625,0 -0.265625,0 -0.265625,0.1875 C 5.96875,0 6.078125,0 6.109375,0 6.390625,0 7.0625,-0.03125 7.34375,-0.03125 7.75,-0.03125 8.1875,0 8.59375,0 8.65625,0 8.78125,0 8.78125,-0.203125 8.78125,-0.3125 8.6875,-0.3125 8.5,-0.3125 c -0.359375,0 -0.640625,0 -0.640625,-0.171875 0,-0.046875 0,-0.0625 0.046875,-0.25 z m 0,0"
                 id="path3449" />
            </symbol>
            <symbol
               overflow="visible"
               id="symbol3455">
              <path
                 style="stroke:none;stroke-width:0"
                 d=""
                 id="path3453" />
            </symbol>
            <symbol
               overflow="visible"
               id="symbol3459">
              <path
                 style="stroke:none;stroke-width:0"
                 d="m 2.1875,-4.625 c 0,-0.015625 0.015625,-0.109375 0.015625,-0.109375 0,-0.046875 -0.015625,-0.109375 -0.109375,-0.109375 -0.140625,0 -0.71875,0.0625 -0.890625,0.078125 -0.046875,0 -0.15625,0.015625 -0.15625,0.15625 0,0.09375 0.109375,0.09375 0.1875,0.09375 0.328125,0 0.328125,0.0625 0.328125,0.109375 0,0.046875 -0.015625,0.09375 -0.015625,0.15625 L 0.5625,-0.3125 c -0.046875,0.125 -0.046875,0.140625 -0.046875,0.15625 0,0.109375 0.09375,0.21875 0.25,0.21875 0.1875,0 0.265625,-0.125 0.3125,-0.28125 0.015625,-0.03125 0.3125,-1.265625 0.34375,-1.359375 0.5,0.046875 0.890625,0.21875 0.890625,0.578125 0,0.03125 0,0.0625 -0.015625,0.140625 -0.03125,0.09375 -0.03125,0.140625 -0.03125,0.21875 0,0.484375 0.40625,0.703125 0.75,0.703125 0.671875,0 0.875,-1.046875 0.875,-1.0625 0,-0.09375 -0.078125,-0.09375 -0.109375,-0.09375 -0.09375,0 -0.109375,0.046875 -0.140625,0.171875 C 3.5625,-0.625 3.375,-0.125 3.03125,-0.125 c -0.1875,0 -0.25,-0.171875 -0.25,-0.359375 0,-0.125 0,-0.140625 0.046875,-0.3125 0.015625,-0.03125 0.03125,-0.140625 0.03125,-0.21875 0,-0.625 -0.828125,-0.71875 -1.125,-0.734375 C 1.9375,-1.875 2.1875,-2.109375 2.3125,-2.21875 2.671875,-2.546875 3.015625,-2.875 3.40625,-2.875 c 0.078125,0 0.171875,0.015625 0.234375,0.09375 C 3.34375,-2.734375 3.28125,-2.5 3.28125,-2.390625 c 0,0.140625 0.109375,0.25 0.265625,0.25 0.203125,0 0.40625,-0.15625 0.40625,-0.4375 0,-0.234375 -0.171875,-0.5 -0.53125,-0.5 -0.40625,0 -0.765625,0.296875 -1.125,0.625 C 2,-2.1875 1.78125,-1.96875 1.484375,-1.84375 Z m 0,0"
                 id="path3457" />
            </symbol>
          </g>
        </defs>
        <g
           id="id-3ebf134b-8af2-47e1-87d7-ac511c4497f3"
           transform="translate(-149.087,-126.305)">
          <g
             style="fill:#000000;fill-opacity:1"
             id="id-4fbc758f-a480-486d-9725-510c26940e34">
            <g
               transform="translate(148.712,136.259)"
               id="g2852">
              <path
                 style="stroke:none;stroke-width:0"
                 d="m 1.90625,-2.328125 c 0.546875,0 0.9375,0.375 0.9375,1.125 0,0.859375 -0.515625,1.125 -0.90625,1.125 -0.28125,0 -0.90625,-0.078125 -1.1875,-0.5 0.328125,0 0.40625,-0.234375 0.40625,-0.390625 0,-0.21875 -0.171875,-0.375 -0.390625,-0.375 -0.1875,0 -0.390625,0.125 -0.390625,0.40625 0,0.65625 0.71875,1.078125 1.5625,1.078125 0.96875,0 1.640625,-0.65625 1.640625,-1.34375 0,-0.546875 -0.4375,-1.09375 -1.203125,-1.25 0.71875,-0.265625 0.984375,-0.78125 0.984375,-1.21875 0,-0.546875 -0.625,-0.953125 -1.40625,-0.953125 -0.765625,0 -1.359375,0.375 -1.359375,0.9375 0,0.234375 0.15625,0.359375 0.359375,0.359375 0.21875,0 0.359375,-0.15625 0.359375,-0.34375 0,-0.203125 -0.140625,-0.359375 -0.359375,-0.375 0.25,-0.296875 0.71875,-0.375 0.984375,-0.375 0.3125,0 0.75,0.15625 0.75,0.75 0,0.296875 -0.09375,0.625 -0.28125,0.828125 -0.21875,0.265625 -0.421875,0.28125 -0.765625,0.3125 -0.171875,0.015625 -0.1875,0.015625 -0.21875,0.015625 -0.015625,0 -0.078125,0.015625 -0.078125,0.09375 0,0.09375 0.0625,0.09375 0.1875,0.09375 z m 0,0"
                 id="id-d2161aa8-3f35-44ec-bc67-0b2498846078" />
            </g>
          </g>
          <g
             style="fill:#000000;fill-opacity:1"
             id="id-044a5536-eb6d-4c38-b11e-aded58b839fc">
            <g
               transform="translate(153.182,134.765)"
               id="g2856">
              <path
                 style="stroke:none;stroke-width:0"
                 d="M 6.265625,-5.671875 C 6.75,-6.453125 7.171875,-6.484375 7.53125,-6.5 c 0.125,-0.015625 0.140625,-0.171875 0.140625,-0.1875 0,-0.078125 -0.0625,-0.125 -0.140625,-0.125 -0.25,0 -0.546875,0.03125 -0.8125,0.03125 -0.328125,0 -0.671875,-0.03125 -0.984375,-0.03125 -0.0625,0 -0.1875,0 -0.1875,0.1875 0,0.109375 0.078125,0.125 0.15625,0.125 0.265625,0.015625 0.453125,0.125 0.453125,0.328125 0,0.15625 -0.140625,0.375 -0.140625,0.375 l -3.0625,4.875 -0.6875,-5.28125 C 2.265625,-6.375 2.5,-6.5 2.953125,-6.5 c 0.140625,0 0.25,0 0.25,-0.203125 0,-0.078125 -0.078125,-0.109375 -0.125,-0.109375 -0.40625,0 -0.828125,0.03125 -1.25,0.03125 -0.171875,0 -0.359375,0 -0.546875,0 -0.171875,0 -0.359375,-0.03125 -0.53125,-0.03125 -0.078125,0 -0.1875,0 -0.1875,0.1875 0,0.125 0.078125,0.125 0.25,0.125 0.546875,0 0.5625,0.09375 0.59375,0.34375 L 2.1875,-0.015625 C 2.21875,0.1875 2.265625,0.21875 2.390625,0.21875 c 0.15625,0 0.203125,-0.046875 0.28125,-0.171875 z m 0,0"
                 id="id-630a7f6c-6f6a-4304-b7eb-22312f267304" />
            </g>
          </g>
          <g
             style="fill:#000000;fill-opacity:1"
             id="id-fc16312c-bece-4d96-965e-723f999f8f8e">
            <g
               transform="translate(161.207,131.149)"
               id="g2860">
              <path
                 style="stroke:none;stroke-width:0"
                 d="m 2.1875,-4.625 c 0,-0.015625 0.015625,-0.109375 0.015625,-0.109375 0,-0.046875 -0.015625,-0.109375 -0.109375,-0.109375 -0.140625,0 -0.71875,0.0625 -0.890625,0.078125 -0.046875,0 -0.15625,0.015625 -0.15625,0.15625 0,0.09375 0.109375,0.09375 0.1875,0.09375 0.328125,0 0.328125,0.0625 0.328125,0.109375 0,0.046875 -0.015625,0.09375 -0.015625,0.15625 L 0.5625,-0.3125 c -0.046875,0.125 -0.046875,0.140625 -0.046875,0.15625 0,0.109375 0.09375,0.21875 0.25,0.21875 0.1875,0 0.265625,-0.125 0.3125,-0.28125 0.015625,-0.03125 0.3125,-1.265625 0.34375,-1.359375 0.5,0.046875 0.890625,0.21875 0.890625,0.578125 0,0.03125 0,0.0625 -0.015625,0.140625 -0.03125,0.09375 -0.03125,0.140625 -0.03125,0.21875 0,0.484375 0.40625,0.703125 0.75,0.703125 0.671875,0 0.875,-1.046875 0.875,-1.0625 0,-0.09375 -0.078125,-0.09375 -0.109375,-0.09375 -0.09375,0 -0.109375,0.046875 -0.140625,0.171875 C 3.5625,-0.625 3.375,-0.125 3.03125,-0.125 c -0.1875,0 -0.25,-0.171875 -0.25,-0.359375 0,-0.125 0,-0.140625 0.046875,-0.3125 0.015625,-0.03125 0.03125,-0.140625 0.03125,-0.21875 0,-0.625 -0.828125,-0.71875 -1.125,-0.734375 C 1.9375,-1.875 2.1875,-2.109375 2.3125,-2.21875 2.671875,-2.546875 3.015625,-2.875 3.40625,-2.875 c 0.078125,0 0.171875,0.015625 0.234375,0.09375 C 3.34375,-2.734375 3.28125,-2.5 3.28125,-2.390625 c 0,0.140625 0.109375,0.25 0.265625,0.25 0.203125,0 0.40625,-0.15625 0.40625,-0.4375 0,-0.234375 -0.171875,-0.5 -0.53125,-0.5 -0.40625,0 -0.765625,0.296875 -1.125,0.625 C 2,-2.1875 1.78125,-1.96875 1.484375,-1.84375 Z m 0,0"
                 id="id-145e6870-d25b-4367-a8f9-a7d20d429d76" />
            </g>
          </g>
          <g
             style="fill:#000000;fill-opacity:1"
             id="id-9e8a8230-6df7-4977-88dd-3f65feb92c0e">
            <g
               transform="translate(166.109,134.765)"
               id="g2864">
              <path
                 style="stroke:none;stroke-width:0"
                 d="M 9.234375,-6.046875 C 9.328125,-6.40625 9.34375,-6.5 10.09375,-6.5 c 0.21875,0 0.3125,0 0.3125,-0.203125 0,-0.109375 -0.09375,-0.109375 -0.265625,-0.109375 h -1.3125 c -0.265625,0 -0.28125,0 -0.390625,0.1875 L 4.796875,-0.9375 4.015625,-6.578125 C 3.984375,-6.8125 3.96875,-6.8125 3.703125,-6.8125 H 2.34375 c -0.1875,0 -0.296875,0 -0.296875,0.1875 0,0.125 0.09375,0.125 0.28125,0.125 0.140625,0 0.3125,0.015625 0.4375,0.015625 0.15625,0.03125 0.21875,0.046875 0.21875,0.171875 0,0.03125 -0.015625,0.0625 -0.046875,0.1875 l -1.265625,5.0625 c -0.09375,0.40625 -0.265625,0.71875 -1.078125,0.75 -0.046875,0 -0.171875,0.015625 -0.171875,0.1875 0,0.09375 0.0625,0.125 0.140625,0.125 0.3125,0 0.65625,-0.03125 1,-0.03125 C 1.890625,-0.03125 2.25,0 2.578125,0 c 0.046875,0 0.1875,0 0.1875,-0.203125 0,-0.109375 -0.109375,-0.109375 -0.1875,-0.109375 -0.5625,0 -0.671875,-0.203125 -0.671875,-0.4375 0,-0.0625 0,-0.125 0.03125,-0.234375 L 3.296875,-6.40625 H 3.3125 l 0.859375,6.171875 C 4.1875,-0.109375 4.203125,0 4.3125,0 4.421875,0 4.484375,-0.109375 4.53125,-0.171875 l 4.03125,-6.3125 h 0.015625 l -1.4375,5.703125 c -0.09375,0.390625 -0.109375,0.46875 -0.90625,0.46875 -0.15625,0 -0.265625,0 -0.265625,0.1875 C 5.96875,0 6.078125,0 6.109375,0 6.390625,0 7.0625,-0.03125 7.34375,-0.03125 7.75,-0.03125 8.1875,0 8.59375,0 8.65625,0 8.78125,0 8.78125,-0.203125 8.78125,-0.3125 8.6875,-0.3125 8.5,-0.3125 c -0.359375,0 -0.640625,0 -0.640625,-0.171875 0,-0.046875 0,-0.0625 0.046875,-0.25 z m 0,0"
                 id="id-8c59d7c7-abc3-4785-b49c-5cc76d2f3b36" />
            </g>
          </g>
        </g>
      </g>
      <g
         transform="matrix(0.6228776,0,0,0.53627216,42.144176,30.176727)"
         ns2:version="1.7.1"
         ns2:texconverter="pdflatex"
         ns2:pdfconverter="inkscape"
         ns2:text="T$\\pi\\pi$"
         ns2:preamble="C:\Users\Shubhang Sharma\AppData\Roaming\inkscape\extensions\textext\default_packages.tex"
         ns2:scale="1.0149999999999983"
         ns2:alignment="middle center"
         ns2:stroke-to-path="0"
         ns2:jacobian_sqrt="0.18943852693684038"
         id="g945">
        <defs
           id="id-d62ede04-f195-495d-af2e-6e6b777752dd">
          <g
             id="g3693">
            <symbol
               overflow="visible"
               id="symbol3679">
              <path
                 style="stroke:none;stroke-width:0"
                 d=""
                 id="path3677" />
            </symbol>
            <symbol
               overflow="visible"
               id="symbol3683">
              <path
                 style="stroke:none;stroke-width:0"
                 d="m 6.640625,-6.75 h -6.09375 l -0.1875,2.25 h 0.25 C 0.75,-6.109375 0.890625,-6.4375 2.40625,-6.4375 c 0.171875,0 0.4375,0 0.53125,0.015625 0.21875,0.046875 0.21875,0.15625 0.21875,0.375 v 5.265625 c 0,0.328125 0,0.46875 -1.046875,0.46875 H 1.703125 V 0 C 2.109375,-0.03125 3.125,-0.03125 3.59375,-0.03125 c 0.453125,0 1.484375,0 1.890625,0.03125 v -0.3125 h -0.40625 c -1.046875,0 -1.046875,-0.140625 -1.046875,-0.46875 v -5.265625 c 0,-0.1875 0,-0.328125 0.1875,-0.375 0.109375,-0.015625 0.375,-0.015625 0.5625,-0.015625 1.515625,0 1.65625,0.328125 1.796875,1.9375 h 0.25 z m 0,0"
                 id="path3681" />
            </symbol>
            <symbol
               overflow="visible"
               id="symbol3687">
              <path
                 style="stroke:none;stroke-width:0"
                 d=""
                 id="path3685" />
            </symbol>
            <symbol
               overflow="visible"
               id="symbol3691">
              <path
                 style="stroke:none;stroke-width:0"
                 d="m 2.640625,-3.71875 h 1.125 C 3.4375,-2.25 3.34375,-1.8125 3.34375,-1.140625 c 0,0.140625 0,0.40625 0.078125,0.75 0.109375,0.4375 0.21875,0.5 0.359375,0.5 0.203125,0 0.421875,-0.171875 0.421875,-0.375 0,-0.0625 0,-0.078125 -0.0625,-0.21875 -0.296875,-0.71875 -0.296875,-1.375 -0.296875,-1.65625 0,-0.515625 0.078125,-1.0625 0.1875,-1.578125 h 1.125 c 0.140625,0 0.5,0 0.5,-0.34375 0,-0.234375 -0.21875,-0.234375 -0.40625,-0.234375 H 1.90625 c -0.21875,0 -0.59375,0 -1.03125,0.46875 -0.34375,0.390625 -0.609375,0.84375 -0.609375,0.890625 0,0.015625 0,0.109375 0.125,0.109375 0.078125,0 0.09375,-0.046875 0.15625,-0.125 C 1.03125,-3.71875 1.609375,-3.71875 1.8125,-3.71875 H 2.375 C 2.0625,-2.515625 1.53125,-1.3125 1.109375,-0.40625 1.03125,-0.25 1.03125,-0.234375 1.03125,-0.15625 c 0,0.1875 0.15625,0.265625 0.28125,0.265625 0.296875,0 0.375,-0.28125 0.5,-0.640625 C 1.953125,-1 1.953125,-1.015625 2.078125,-1.515625 Z m 0,0"
                 id="path3689" />
            </symbol>
          </g>
        </defs>
        <g
           id="id-2bdb500e-f869-4787-9148-ed0ae3f57ab7"
           transform="translate(-149.071,-128.015)">
          <g
             style="fill:#000000;fill-opacity:1"
             id="id-bbda2440-2277-46db-9b4a-2bb9f9d4bd31">
            <g
               transform="translate(148.712,134.765)"
               id="g933">
              <path
                 style="stroke:none;stroke-width:0"
                 d="m 6.640625,-6.75 h -6.09375 l -0.1875,2.25 h 0.25 C 0.75,-6.109375 0.890625,-6.4375 2.40625,-6.4375 c 0.171875,0 0.4375,0 0.53125,0.015625 0.21875,0.046875 0.21875,0.15625 0.21875,0.375 v 5.265625 c 0,0.328125 0,0.46875 -1.046875,0.46875 H 1.703125 V 0 C 2.109375,-0.03125 3.125,-0.03125 3.59375,-0.03125 c 0.453125,0 1.484375,0 1.890625,0.03125 v -0.3125 h -0.40625 c -1.046875,0 -1.046875,-0.140625 -1.046875,-0.46875 v -5.265625 c 0,-0.1875 0,-0.328125 0.1875,-0.375 0.109375,-0.015625 0.375,-0.015625 0.5625,-0.015625 1.515625,0 1.65625,0.328125 1.796875,1.9375 h 0.25 z m 0,0"
                 id="id-0043e706-a8b9-4078-9db6-de8ce2351e0d" />
            </g>
          </g>
          <g
             style="fill:#000000;fill-opacity:1"
             id="id-d954ef9a-c8c4-40fa-80d6-d6ee898ccfd4">
            <g
               transform="translate(155.908,134.765)"
               id="g937">
              <path
                 style="stroke:none;stroke-width:0"
                 d="m 2.640625,-3.71875 h 1.125 C 3.4375,-2.25 3.34375,-1.8125 3.34375,-1.140625 c 0,0.140625 0,0.40625 0.078125,0.75 0.109375,0.4375 0.21875,0.5 0.359375,0.5 0.203125,0 0.421875,-0.171875 0.421875,-0.375 0,-0.0625 0,-0.078125 -0.0625,-0.21875 -0.296875,-0.71875 -0.296875,-1.375 -0.296875,-1.65625 0,-0.515625 0.078125,-1.0625 0.1875,-1.578125 h 1.125 c 0.140625,0 0.5,0 0.5,-0.34375 0,-0.234375 -0.21875,-0.234375 -0.40625,-0.234375 H 1.90625 c -0.21875,0 -0.59375,0 -1.03125,0.46875 -0.34375,0.390625 -0.609375,0.84375 -0.609375,0.890625 0,0.015625 0,0.109375 0.125,0.109375 0.078125,0 0.09375,-0.046875 0.15625,-0.125 C 1.03125,-3.71875 1.609375,-3.71875 1.8125,-3.71875 H 2.375 C 2.0625,-2.515625 1.53125,-1.3125 1.109375,-0.40625 1.03125,-0.25 1.03125,-0.234375 1.03125,-0.15625 c 0,0.1875 0.15625,0.265625 0.28125,0.265625 0.296875,0 0.375,-0.28125 0.5,-0.640625 C 1.953125,-1 1.953125,-1.015625 2.078125,-1.515625 Z m 0,0"
                 id="id-11dfb796-e595-4812-827b-ab4f16a65f30" />
            </g>
          </g>
          <g
             style="fill:#000000;fill-opacity:1"
             id="id-7197d8c6-ee64-4faa-9463-85afe12079d6">
            <g
               transform="translate(161.945,134.765)"
               id="g941">
              <path
                 style="stroke:none;stroke-width:0"
                 d="m 2.640625,-3.71875 h 1.125 C 3.4375,-2.25 3.34375,-1.8125 3.34375,-1.140625 c 0,0.140625 0,0.40625 0.078125,0.75 0.109375,0.4375 0.21875,0.5 0.359375,0.5 0.203125,0 0.421875,-0.171875 0.421875,-0.375 0,-0.0625 0,-0.078125 -0.0625,-0.21875 -0.296875,-0.71875 -0.296875,-1.375 -0.296875,-1.65625 0,-0.515625 0.078125,-1.0625 0.1875,-1.578125 h 1.125 c 0.140625,0 0.5,0 0.5,-0.34375 0,-0.234375 -0.21875,-0.234375 -0.40625,-0.234375 H 1.90625 c -0.21875,0 -0.59375,0 -1.03125,0.46875 -0.34375,0.390625 -0.609375,0.84375 -0.609375,0.890625 0,0.015625 0,0.109375 0.125,0.109375 0.078125,0 0.09375,-0.046875 0.15625,-0.125 C 1.03125,-3.71875 1.609375,-3.71875 1.8125,-3.71875 H 2.375 C 2.0625,-2.515625 1.53125,-1.3125 1.109375,-0.40625 1.03125,-0.25 1.03125,-0.234375 1.03125,-0.15625 c 0,0.1875 0.15625,0.265625 0.28125,0.265625 0.296875,0 0.375,-0.28125 0.5,-0.640625 C 1.953125,-1 1.953125,-1.015625 2.078125,-1.515625 Z m 0,0"
                 id="id-ec06bd90-813d-4a28-b3eb-74650f4644e0" />
            </g>
          </g>
        </g>
      </g>
    </g>
  </g>
</svg>
